<?xml version="1.0" encoding="UTF-8"?>
<svg xmlns="http://www.w3.org/2000/svg" version="1.1" viewBox="0 0 128 125.1">
  <defs>
    <style>
      .cls-1 {
        fill: #393f48;
      }
    </style>
  </defs>
  <!-- Generator: Adobe Illustrator 28.7.8, SVG Export Plug-In . SVG Version: 1.2.0 Build 200)  -->
  <g>
    <g id="Ebene_1">
      <g id="Ebene_1-2" data-name="Ebene_1">
        <g>
          <path class="cls-1" d="M92.1,53c-5.5,0-8.1,5.3-8.3,8h15.8c0-2.7-2-8-7.5-8Z"/>
          <path class="cls-1" d="M96.9,0H31.1C13.9,0,0,13.9,0,31.1v62.8c0,17.2,13.9,31.1,31.1,31.1h65.7c17.2,0,31.1-13.9,31.1-31.1V31.1c.1-17.2-13.8-31.1-31-31.1ZM58.2,87.7l-4.2-13.2h-21.4l-4.2,13.2h-10.4l17.8-55.8h15.1l17.8,55.8h-10.5ZM109.7,68.8h-25.9c0,4,1,6.4,3.5,8.5,2.3,1.9,4.1,2.1,7.8,2.1s7.8-1.4,11.1-2.7v8.4c-3.8,1.7-7.1,2.5-12.5,2.5s-11.5-1.9-15.1-5.5-5.5-8.6-5.5-14.9,1.7-11.2,5.1-15.2c3.6-4.3,8.4-6.5,14.5-6.5s10.5,2.2,13.6,6.5c2.4,3.4,3.6,7.7,3.6,12.8h0c0,1.6,0,3-.3,4.1h.1Z"/>
          <polygon class="cls-1" points="36 63.8 50.6 63.8 43.3 40.8 36 63.8"/>
        </g>
      </g>
    </g>
  </g>
</svg>