<?xml version="1.0" encoding="UTF-8"?>
<svg xmlns="http://www.w3.org/2000/svg" version="1.1" viewBox="0 0 91.4 127.9">
  <defs>
    <style>
      .cls-1 {
        fill: #393f48;
      }
    </style>
  </defs>
  <!-- Generator: Adobe Illustrator 28.7.8, SVG Export Plug-In . SVG Version: 1.2.0 Build 200)  -->
  <g>
    <g id="Ebene_1">
      <path class="cls-1" d="M0,24.4l8.3,93.2,37.4,10.2,37.4-10.2,8.3-93.2s-91.4,0-91.4,0ZM75,54.7l-25.5,11.2h24.3c0,.1-3,35.6-3,35.6l-25.1,6.8-25.5-6.5-1.6-17.6h11.3c0,0,.9,9.5.9,9.5l14.9,2.8,13.7-4.2,1-14.8h-14.7s-27.9.1-27.9.1l-1-11.6,27.9-12.3H15.6l-1.1-10.7h61.4l-.9,12h0Z"/>
      <polygon class="cls-1" points="35.1 5.1 35.1 0 18.2 0 18.2 17.2 35.1 17.2 35.1 12.9 23.3 12.9 23.3 5.1 35.1 5.1"/>
      <polygon class="cls-1" points="54.1 5 41.8 5 41.8 6.9 54.1 7.1 54.1 17.2 37.1 17.2 37.1 13.1 48.9 13.1 48.9 10.4 37.1 10.4 37.1 0 54.1 0 54.1 5"/>
      <polygon class="cls-1" points="73.1 5 60.7 5 60.7 6.9 73.1 7.1 73.1 17.2 56 17.2 56 13.1 67.8 13.1 67.8 10.4 56 10.4 56 0 73.1 0 73.1 5"/>
    </g>
  </g>
</svg>