<?xml version="1.0" encoding="UTF-8"?>
<svg xmlns="http://www.w3.org/2000/svg" version="1.1" viewBox="0 0 128 128">
  <defs>
    <style>
      .cls-1 {
        fill: #393f48;
      }
    </style>
  </defs>
  <!-- Generator: Adobe Illustrator 28.7.8, SVG Export Plug-In . SVG Version: 1.2.0 Build 200)  -->
  <g>
    <g id="Ebene_2">
      <path class="cls-1" d="M98,0H30C13.4,0,0,13.4,0,30v68c0,16.6,13.4,30,30,30h68c16.6,0,30-13.4,30-30V30c0-16.6-13.4-30-30-30ZM42.6,100.6h-19.8v-26.2h19.8v26.2ZM42.6,64.1h-19.8v-25.9l19.8,10.8v15.1ZM73.7,100.7h-19.8v-26.2h19.8s0,26.2,0,26.2ZM73.7,64.1h-19.8v-15.1l19.8-10.8v25.9ZM104.8,100.7h-19.8v-26.2h19.8s0,26.2,0,26.2ZM104.8,46.5h0v17.8h-19.8v-26.2h0v-6.7l19.8-10.8v25.9Z"/>
    </g>
  </g>
</svg>