<?xml version="1.0" encoding="UTF-8"?>
<svg xmlns="http://www.w3.org/2000/svg" version="1.1" viewBox="0 0 90.6 128">
  <defs>
    <style>
      .cls-1 {
        fill: #393f48;
      }
    </style>
  </defs>
  <!-- Generator: Adobe Illustrator 28.7.8, SVG Export Plug-In . SVG Version: 1.2.0 Build 200)  -->
  <g>
    <g id="Ebene_1">
      <path class="cls-1" d="M0,25.4l8.3,92.4,37,10.1,37-10.1,8.3-92.4s-90.6,0-90.6,0ZM72.9,55.8H29.2l1,11.7h41.5l-3,35.1-23.4,6.5h0l-23.5-6.5-1.5-18h11.5c0,0,.8,9.2.8,9.2l12.8,3.4h0l12.7-3.5,1.4-14.9H19.8l-3.1-34.6h57.3s-1.1,11.6-1.1,11.6Z"/>
      <polygon class="cls-1" points="59.7 0 56 6.1 52.2 0 46.1 0 46.1 17.4 52 17.4 52 8.9 56 14.8 60 8.9 60 17.4 65.8 17.4 65.8 0 59.7 0"/>
      <polygon class="cls-1" points="19.3 0 19.3 5.7 14 5.7 14 0 8.2 0 8.2 17.4 14 17.4 14 11.6 19.3 11.6 19.3 17.4 25.1 17.4 25.1 0 19.3 0"/>
      <polygon class="cls-1" points="43.7 0 27.6 0 27.6 5.8 32.8 5.8 32.8 17.4 38.6 17.4 38.6 5.8 43.7 5.8 43.7 0"/>
      <polygon class="cls-1" points="82.6 11.5 74.4 11.5 74.4 0 68.6 0 68.6 17.4 74.4 17.4 82.6 17.4 82.6 11.5"/>
    </g>
  </g>
</svg>