<?xml version="1.0" encoding="UTF-8"?>
<svg xmlns="http://www.w3.org/2000/svg" version="1.1" viewBox="0 0 69 128">
  <defs>
    <style>
      .cls-1 {
        fill: #393f48;
      }
    </style>
  </defs>
  <!-- Generator: Adobe Illustrator 28.7.8, SVG Export Plug-In . SVG Version: 1.2.0 Build 200)  -->
  <g>
    <g id="Ebene_1">
      <path class="cls-1" d="M4.2,93.4h4.6v25.8c-.1,4.1-2.9,8-6.9,8.8L0,125.5s4.3-2,4.3-5.9c0,0,0-26.2,0-26.2Z"/>
      <path class="cls-1" d="M30,100.8h4.3s4,11.4,4.8,15.5c0,0,3.1-8.4,3.9-15.5h4.2s-2,11.8-5.9,19.9h-5.5l-6-19.9h0Z"/>
      <path class="cls-1" d="M24.2,120.7v-2.5s-2,3-6.3,3-6.2-2.9-6.2-5.8c0-4.9,3.9-7,11.7-6.9v-.4c0-1.7,0-4.9-4.2-4.8-1.9,0-3.8.4-5.8,1.1l-.4-2.4c1.7-1.1,4.3-1.8,6.8-1.8,6.2,0,7.8,2.2,7.7,8.2v12.4s-3.3,0-3.3,0h0ZM23.2,111.2c-3.4,0-7.2.5-7.2,3.8s1.3,2.9,2.9,2.9,4.3-1.8,4.3-1.8v-4.9Z"/>
      <path class="cls-1" d="M61.6,120.7v-2.5s-2,3-6.3,3-6.2-2.9-6.2-5.8c0-4.9,3.9-7,11.7-6.9v-.4c0-1.7,0-4.9-4.2-4.8-1.9,0-3.8.4-5.8,1.1l-.4-2.4c1.7-1.1,4.3-1.8,6.8-1.8,6.2,0,7.8,2.2,7.7,8.2v12.4s-3.3,0-3.3,0h0ZM60.6,111.2c-3.4,0-7.2.5-7.2,3.8s1.3,2.9,2.9,2.9,4.3-1.8,4.3-1.8v-4.9Z"/>
      <path class="cls-1" d="M34.3,47.6s-18.1-12.8-8.3-22.5c2.1-2.1,12.5-9.3,15.7-14.2C44.9,6,43.1,0,43.1,0c7.7,10.2-5.6,20.9-9.6,24-4.1,3.3-9,7.9-4.1,16.2,1.8,3,4.8,7.5,4.8,7.5h0Z"/>
      <path class="cls-1" d="M53.5,18.2s-13.5,2.3-18,11c-3.7,7.1,2.6,11.4,4,14.6,1.9,4.5-2.2,7.2-2.2,7.2,0,0,7.9-3.9,7-9.3-1-6.1-6.8-6.8-4.1-12.7,1.6-3.6,3.7-5.1,6-6.6,4.5-3,7.3-4.2,7.3-4.2h0Z"/>
      <polygon class="cls-1" points="68.3 99.9 68 100.9 67.7 99.9 67 99.9 67 101.6 67.5 101.6 67.5 100.4 67.8 101.6 68 101.6 68.2 101.6 68.6 100.4 68.6 101.6 69 101.6 69 99.9 68.3 99.9"/>
      <polygon class="cls-1" points="65.3 99.9 65.3 100.3 65.9 100.3 65.9 101.6 66.4 101.6 66.4 100.3 66.9 100.3 66.9 99.9 65.3 99.9"/>
      <path class="cls-1" d="M23.9,48.2s-7.1,1.9-8.6,3.4,4,2.9,18.6,2c14.5-.9,18.9-2.1,18.9-2.1l-4,2.4s-21,4.4-36,1c-7.7-1.7-2-4.2,3.7-5.6,3.8-.9,7.5-1.1,7.5-1.1Z"/>
      <path class="cls-1" d="M54.9,49.1s4.1-.8,6,.6c2.2,1.6,3.5,5.3-1.1,9.7-5,4.7-6.8,4.9-6.8,4.9,0,0,6.3-.7,10.4-4.7,4.2-4,3.9-8.9,1-10.9-2.8-1.9-6.9-1.7-9.5.3Z"/>
      <path class="cls-1" d="M20.2,58.3s-2.3,2,.3,2.8,17.5,1.8,25.4-.7c0,0,2.5,2,3.4,2.3,0,0-13.8,4.1-26,2.1-12.2-2-6.2-5.6-3.1-6.5h0Z"/>
      <path class="cls-1" d="M22.5,67.8s-1.6,1.6.5,2.3,13.9,1.4,20.2-.6c0,0,4.2,2.2,4.9,2.4,0,0-9.5,4.5-22.6,2.3-9.8-1.7-7.2-5.5-2.9-6.4Z"/>
      <path class="cls-1" d="M15.6,74.7s-7,.6-8,2.8c-1.1,2.5,19,6.1,47.8,1.9,1.5-.2,7.3-1.6,6-4.3,0,0,2.3,1.5,0,3.4-2.1,1.6-11.3,5.5-40.7,4.6-29.4-.9-16.4-6.6-12.9-7.8,1.1-.4,2.5-.7,3.6-.7,2.4-.2,4.3.2,4.3.2h0Z"/>
      <path class="cls-1" d="M13.9,85.1s13.1,2,27.7.9c9-.6,19.7-2.3,24.8-6.5,0,0,0,7.3-26.5,7.9-23.7.5-25.9-2.3-25.9-2.3h0Z"/>
    </g>
  </g>
</svg>