<?xml version="1.0" encoding="UTF-8"?>
<svg xmlns="http://www.w3.org/2000/svg" version="1.1" viewBox="0 0 128 128">
  <defs>
    <style>
      .cls-1 {
        fill: #393f48;
      }
    </style>
  </defs>
  <!-- Generator: Adobe Illustrator 28.7.8, SVG Export Plug-In . SVG Version: 1.2.0 Build 200)  -->
  <g>
    <g id="Ebene_1">
      <g id="Ebene_1-2" data-name="Ebene_1">
        <path class="cls-1" d="M32.6,49.6h13.5v42.5h-13.5v-42.5ZM39.3,28.5c4.3,0,7.8,3.4,7.8,7.7s-3.5,7.7-7.8,7.7-7.8-3.4-7.8-7.7,3.5-7.6,7.8-7.6"/>
        <path class="cls-1" d="M54.5,49.6h12.9v5.8h.2c1.8-3.3,6.2-6.9,12.8-6.9,13.6,0,16.1,8.8,16.1,20.2v23.3h-13.4v-20.7c0-4.9,0-11.3-7-11.3s-8.1,5.4-8.1,10.9v21h-13.5v-42.5h0v.2Z"/>
        <path class="cls-1" d="M64,0C28.6,0,0,28.6,0,64s28.6,64,64,64,64-28.7,64-64S99.3,0,64,0ZM64,121c-31.4,0-57-25.6-57-57S32.6,7,64,7s57,25.6,57,57-25.6,57-57,57Z"/>
      </g>
    </g>
  </g>
</svg>