<?xml version="1.0" encoding="UTF-8"?>
<svg xmlns="http://www.w3.org/2000/svg" version="1.1" viewBox="0 0 109.7 128">
  <defs>
    <style>
      .cls-1 {
        fill: #393f48;
      }
    </style>
  </defs>
  <!-- Generator: Adobe Illustrator 28.7.8, SVG Export Plug-In . SVG Version: 1.2.0 Build 200)  -->
  <g>
    <g id="Ebene_1">
      <g id="Ebene_1-2" data-name="Ebene_1">
        <path class="cls-1" d="M109.7,92.6c-6.6,17.8-20.1,34.9-32,35.4-7.6.3-13.7-5.1-20.7-5.1s-13.1,5.4-20.7,5.1C19.3,127.2,3.7,96.8.4,70.9c-1-6.9,0-15.2,2.8-22,5.7-13.2,17.9-20.4,34.7-20.4s12.6,5.1,19,5.1,12.1-5.1,19-5.1c11.8,0,22.3,4.3,29.3,10.9-7.6,6.3-12.4,14.9-12.4,25.5s8.3,21.3,16.7,27.6h.2Z"/>
        <path class="cls-1" d="M83.1,0c0,15.8-12.8,28.5-28.5,28.5,0-15.8,12.8-28.5,28.5-28.5Z"/>
      </g>
    </g>
  </g>
</svg>