<?xml version="1.0" encoding="UTF-8"?>
<svg xmlns="http://www.w3.org/2000/svg" version="1.1" viewBox="0 0 128 128">
  <defs>
    <style>
      .cls-1 {
        fill: #393f48;
      }
    </style>
  </defs>
  <!-- Generator: Adobe Illustrator 28.7.8, SVG Export Plug-In . SVG Version: 1.2.0 Build 200)  -->
  <g>
    <g id="Ebene_1">
      <path class="cls-1" d="M94.6,27.5c.1-13.4.7-15.6-4.5-20.6-5.2-5-16.6-6.9-24.4-6.9h-4.3c-7.7,0-19.6,1.5-24.8,6.5-5.4,5.2-3.2,7.7-3.6,22.3h31v4.4H27.3c-6.4,0-13.1,0-17.7,3.7C3.5,41.7.3,51,0,59.5h0v7c0,8.9,2.6,19.8,8.7,25.3,5.6,5.1,10.1,3.7,20.2,3.9h0v-16.9c0-9.3,7.4-16.8,16.6-16.8h32.6c9.1,0,16.5-7.4,16.5-16.6v-17.9c0,0,0,0,0,0ZM46.5,21c-3.2.1-5.8-2.5-5.7-5.8,0-2.9,2.5-5.3,5.3-5.4,3.2-.1,5.8,2.5,5.7,5.8,0,2.9-2.5,5.3-5.3,5.4Z"/>
      <path class="cls-1" d="M33.4,100.5c-.1,13.4-.7,15.6,4.5,20.6,5.2,5,16.6,6.9,24.4,6.9h4.3c7.7,0,19.6-1.5,24.8-6.5,5.4-5.2,3.2-7.7,3.6-22.3h-31v-4.4h36.9c6.4,0,13.1,0,17.7-3.7,6.1-4.8,9.3-14.2,9.5-22.7h0v-7c0-8.9-2.6-19.8-8.7-25.3-5.6-5-10.1-3.7-20.2-3.9h0v16.9c0,9.3-7.4,16.8-16.6,16.8h-32.6c-9.1,0-16.5,7.4-16.5,16.6,0,0,0,17.9,0,17.9ZM81.5,107c3.2,0,5.8,2.5,5.7,5.8,0,2.9-2.4,5.3-5.3,5.4-3.2,0-5.8-2.5-5.7-5.8,0-2.9,2.4-5.3,5.3-5.4Z"/>
    </g>
  </g>
</svg>