<?xml version="1.0" encoding="UTF-8"?>
<svg xmlns="http://www.w3.org/2000/svg" version="1.1" viewBox="0 0 128 128">
  <defs>
    <style>
      .cls-1 {
        fill: #393f48;
      }
    </style>
  </defs>
  <!-- Generator: Adobe Illustrator 28.7.8, SVG Export Plug-In . SVG Version: 1.2.0 Build 200)  -->
  <g>
    <g id="Ebene_1">
      <g id="Ebene_1-2" data-name="Ebene_1">
        <path class="cls-1" d="M64,0C28.6,0,0,28.6,0,64s28.6,64,64,64,64-28.7,64-64S99.3,0,64,0ZM64,121c-31.4,0-57-25.6-57-57S32.6,7,64,7s57,25.6,57,57-25.6,57-57,57Z"/>
        <path class="cls-1" d="M87.4,72.2c-.3-.6-.7-1.1-1.2-1.6-1.9-2.5-2.8-5.2-2.8-8.4v-19.7c0-1.5,0-3-.4-4.5-.7-4.3-3-7.6-6.8-9.8-3-1.7-6.2-2.5-9.6-2.8-4.2-.4-8.3,0-12.4,1.3-6.7,2.2-11,6.6-12.5,13.6-.2,1.2.4,2.1,1.7,2.3.9,0,1.8.2,2.7.3,2.1.2,4.2.5,6.3.7,1.2,0,1.8-.4,2.2-1.5,0-.3.2-.6.2-.8.7-2.3,2.1-3.9,4.4-4.8,1.4-.5,2.8-.6,4.3-.5,2.8.2,4.9,2,5.5,4.7.2.7.2,1.3.2,2l.2,4.3h-2.1c-2.3.3-4.5.6-6.8.9-3.3.5-6.6,1.1-9.7,2.4-3.9,1.7-6.9,4.2-8.8,8-2,3.9-2.3,8-1.5,12.3,1.2,5.9,4.7,9.7,10.7,11.1,2.1.5,4.2.5,6.3.3,2.4-.2,4.7-.6,6.8-1.7,2.5-1.2,4.6-3,6.5-4.9s.5-.5.9,0c1.3,2,2.8,3.9,4.6,5.4,1.3,1.1,2.2,1.1,3.5,0,2.3-2,4.6-4,6.9-6,1-.8,1.2-1.6.5-2.7h.2ZM69.4,55.6v2.8c0,2.2,0,4.3-.7,6.4-.9,2.8-2.2,5.1-4.9,6.5-4.2,2.1-8.5-.4-8.9-5,0-1.7,0-3.4.5-5.1.9-2.3,2.6-3.8,4.8-4.8,1.9-.8,3.9-1.1,6-1.3h3.2v.5h0v.2h0v-.2Z"/>
        <path class="cls-1" d="M64.4,102.7c-6.1,0-11.6-.7-17-2.1-3.8-1-7.5-2.3-11.1-4.1-4.7-2.2-9.1-5-13.1-8.3-.7-.6-1.4-1.2-2-1.8,0,0-.1,0-.2-.2-.3-.4-.4-.8-.2-1.1.2-.3.7-.4,1.1-.2.5.3,1,.6,1.6.9,4,2.2,8.2,4.1,12.5,5.6,3.8,1.3,7.7,2.4,11.6,3.2,2.5.5,5.1.9,7.6,1.2,2,.2,4,.4,5.9.4s2.7,0,4.1,0c2.5,0,5.1-.2,7.6-.4,6.6-.7,13-2.1,19.3-4.2,1.8-.6,3.6-1.3,5.3-2,.6-.3,1.2-.2,1.8.2.4.4.5.9.2,1.4-.2.3-.4.5-.6.7-2.5,1.8-5.2,3.4-8.1,4.7-3.8,1.8-7.8,3.1-11.9,4.1-2.7.7-5.5,1.1-8.2,1.4-2.2.2-4.5.4-6.2.4h0v.2Z"/>
        <path class="cls-1" d="M101,83.2c1.6,0,3.1,0,4.5.5.2,0,.4,0,.6.2.8.2,1.1.8,1.2,1.6,0,1.7-.2,3.4-.7,5.1-.7,2.3-1.7,4.6-3.2,6.5-.5.7-1.1,1.2-1.7,1.8,0,0-.3.2-.5.3h-.7c-.2-.2-.2-.4,0-.6,0-.2,0-.3.2-.5.8-2,1.6-4,2.2-6.2.3-1.1.6-2.1.5-3.3,0-.9-.3-1.3-1.2-1.6-.9-.3-1.8-.3-2.8-.4-1.7,0-3.4,0-5.1.3-.7,0-1.5.2-2.2.2s-.7,0-.8-.3c0-.2,0-.6.3-.9.4-.3.9-.6,1.4-.9,1.8-.9,3.6-1.4,5.6-1.7,1,0,1.9-.2,2.7-.2h-.2Z"/>
      </g>
    </g>
  </g>
</svg>