<?xml version="1.0" encoding="UTF-8"?>
<svg xmlns="http://www.w3.org/2000/svg" version="1.1" viewBox="0 0 108.6 128">
  <defs>
    <style>
      .cls-1 {
        fill: #393f48;
      }
    </style>
  </defs>
  <!-- Generator: Adobe Illustrator 28.7.8, SVG Export Plug-In . SVG Version: 1.2.0 Build 200)  -->
  <g>
    <g id="Ebene_1">
      <g id="Ebene_1-2" data-name="Ebene_1">
        <g>
          <rect class="cls-1" x="93.2" y="41.3" width="15.4" height="48.9" rx="7.6" ry="7.6"/>
          <rect class="cls-1" x="0" y="41.3" width="15.3" height="48.9" rx="7.6" ry="7.6"/>
          <path class="cls-1" d="M18.7,93.8c0,4.8,3.9,8.7,8.7,8.7h6.7v17.8c0,4.2,3.4,7.7,7.7,7.7s7.7-3.4,7.7-7.7v-17.8h10.7v17.8c0,4.2,3.4,7.7,7.7,7.7s7.7-3.4,7.7-7.7v-17.8h6.3c4.8,0,8.7-3.9,8.7-8.7v-51H18.7v51Z"/>
          <path class="cls-1" d="M90.3,40.3c-.9-12.6-8.3-23.4-18.9-29.1l5.8-10c.2-.4,0-.9-.3-1.1-.4-.2-.9,0-1.1.3l-5.8,10.1c-4.7-2.2-9.9-3.5-15.4-3.5s-11,1.3-15.7,3.6L32.9.4c-.2-.4-.7-.5-1.1-.3-.4.2-.5.7-.3,1.1l5.9,10.2c-10.4,5.7-17.7,16.4-18.6,28.9h71.5ZM38.2,27.3c-1.7,0-3.1-1.4-3.1-3.1s1.4-3.1,3.1-3.1,3.1,1.4,3.1,3.1-1.4,3.1-3.1,3.1ZM70.5,27.3c-1.7,0-3.1-1.4-3.1-3.1s1.4-3.1,3.1-3.1,3.1,1.4,3.1,3.1-1.4,3.1-3.1,3.1Z"/>
        </g>
      </g>
    </g>
  </g>
</svg>