<?xml version="1.0" encoding="UTF-8"?>
<svg xmlns="http://www.w3.org/2000/svg" version="1.1" viewBox="0 0 108.6 128">
  <defs>
    <style>
      .cls-1 {
        fill: #393f48;
      }
    </style>
  </defs>
  <!-- Generator: Adobe Illustrator 28.7.8, SVG Export Plug-In . SVG Version: 1.2.0 Build 200)  -->
  <g>
    <g id="Ebene_1">
      <g id="Ebene_1-2" data-name="Ebene_1">
        <path class="cls-1" d="M107.6,105.4c-.6-.6-1.3-1.1-2.1-1.5-1.5-.8-3-1.5-4.3-2.6-1.2-1-2-2.1-2.2-3.8,0-1.6-.5-3.2-1-4.8-.4-1-.9-1.9-2.2-1.9,0-.2,0-.4.2-.6.3-1.4.7-2.9.9-4.3.5-4.3,0-8.6-.9-12.8-.5-2.2-1.4-4.3-2.3-6.5-1.5-3.8-3.6-7.3-6.1-10.6-.9-1.2-2-2.4-2.9-3.6-1.6-2.2-3.1-4.3-4.5-6.5-1.5-2.3-2.8-4.6-3.7-7.2-.8-2.3-.9-4.8-1.3-7.2-.4-2.6-.5-5.3-.8-8-.2-2.9-.6-5.8-1.3-8.6-.5-2.1-2.1-7.3-6.8-11-6.1-4.8-23.4-7.2-28.8,5.6-1.2,2.8-1.5,5.7-1.5,8.6,0,6,.5,12,1.1,17.9.2,1.6.3,3.2,0,4.8-.4,2.4-1.4,4.5-2.9,6.4-2,2.5-4,5-6.1,7.5-2.2,2.7-3.9,5.5-4.6,8.9-.7,2.8-1.4,5.6-2.6,8.2-1.2,2.4-2.5,4.8-3.8,7.2-1.2,2.2-2.3,4.4-2.4,7,0,.8,0,1.6.3,2.4v.4c-.2.4-.5.9-.7,1.3-.4.9-.7,1.7-1,2.6-.2.7-1.5,1-2.2,1h-4.4c-.8,0-1.5.2-2.1.7-1.8,1.4-2.4,3.4-2.2,5.5s.5,4.2.8,6.4c.2,1.5,0,3.3-.6,4.2-.6,1.1-1.2,2.2-1.8,3.3-1.3,2.1-.7,4,1.5,5.1,0,0,.4.2.6.3,1.1.3,2.2.7,3.4.9,1.8.4,3.6.7,5.5,1.1,3.6.8,7.1,1.8,10.6,3,2.7.9,5.4,1.7,8.1,2.5,1.7.5,3.5.6,5.3.3,2.2-.4,4-1.6,5.5-3.3,0,0,.2-.3.3-.3.7-.3,1.3-.6,2-.8,2.9-1,6-1.4,9-1.4s6.4.2,9.5.4c2.4.2,4.9.5,7.3.7.3,0,.5.2.7.4.4.7.8,1.4,1.4,1.9,1.8,1.9,4.1,2.9,6.6,3.1,1.8,0,3.4,0,5.2-.5,1.5-.5,2.7-1.5,3.9-2.5,2.4-2,4.8-4.1,7.2-6.1,3-2.6,6.6-4.4,10.2-6,1.2-.5,2.2-1.1,3.1-2s1.8-3.7.2-5.4h0l-.3.2ZM78.3,60.8c0-.3.4-.4.7-.3,1.3.5,2.4,1.2,3.3,2.3,2.2,2.5,3.4,5.5,3.7,8.8.4,4.3-.2,8.9-1.5,13.1h0c.3,0,1.9.2,2.7.3,1.8,0,3.4.5,5,1.3,1.2.6,2.3,1.4,2.8,2.7.2.5.5,2.1.2,2.2s-1.2-1.6-1.6-2.2c-.6-.8-1.3-1.4-2.2-1.8-2.3-1-4.7-1.4-7.2-1.2-1.3,0-2.3.7-3.3,1.7s-1.3,1.6-2,2.3c0,.2-.3.5-.5.2,0,0-.2-.5,0-.7,1-1.9,2.3-3.5,4.2-4.4.2,0,.3-.2.4-.4,1.3-3.6,2.2-7.2,2-11.1,0-2.3-.5-4.6-1.4-6.8-1-2.4-2.7-4.2-4.9-5.4-.2,0-.4-.4-.3-.7h0ZM57.1,19.5c2.1-.8,3.9-.3,5.5,1.1,1.7,1.4,2.1,4.8,1.6,9.2,0,.8-.4,1.9-.8,2.8-.7-.3-1.4-.5-2.2-.8,1.4-1.1,1.9-2.7,1.6-5.1,0-.6-.3-1.6-.7-2.3-.8-1.2-2.7-2.2-4-1.6-1.4.6-2.2,1.7-2.3,3.2v2.7c0,.3,0,.7.2,1-.7-.2-1.2-.4-1.5-1.2-1.6-5.9,1.1-8.5,2.6-9h0ZM48,29.4c1.5-.7,3-.4,4.5,0,1.2.4,2.4.8,3.5,1.2,2,.7,4,1.4,6,2.3.4.2,1.1.5,1.6.9.6.4,1.1.8,1.7,1.2.2,0,.2.3.2.5,0,.7,0,1.5-.6,2-.5.6-1,1.2-1.7,1.6-2.5,1.7-5,3.3-7.5,4.8-1.5.9-3.2,1.6-4.9,1.9-2.7.4-5.1-.3-7.1-2.2-1-.9-1.9-1.8-2.8-2.8-.5-.6-.8-1.2-1.3-2,1.1.7,2.1,1.4,3.1,1.9,3.4,1.8,6.9,1.7,10.5.3,2.3-.9,6-3.2,7.3-4,.2,0,.2-.3.2-.5v-.3c-.2-.3-.5-.4-.8-.2-1.3.8-4.9,3.1-7.1,4-1.5.6-3,1-4.5,1.1-2,.2-3.8-.4-5.5-1.4-.6-.4-1.2-.8-1.8-1.2-.8-.5-1.3-1.2-1.7-2,0-.2,0-.5,0-.7.3-.6.6-1.2,1-1.8.9-1.1,2-2,3.2-2.7,1.5-.8,3-1.5,4.5-2.2h0v.3ZM39.8,21.9c1.2-1.8,3.6-2.4,5.2-.9,1,1,2.7,3.5,1.5,7.9,0,0-.4,0-.5.1,0-1.5,0-3.1-.7-4.3-.6-.9-1-1.4-1.9-1.6s-1.7.2-2.3,1c-1.5,1.7-1.3,4-.7,5.6.4.9.9,1.4,1.8,1.9l-1.3.8c-2.7-3.7-2.7-8-1.1-10.5h0ZM40.4,121.2c0,.7-.3,1.3-.8,1.8-1.9,2.1-4.1,3.4-7,3.3-1.2,0-2.4-.4-3.5-.8-4.2-1.4-8.3-2.9-12.5-4.2-2.8-.9-5.7-1.4-8.6-1.8-1.6-.2-3.2-.5-4.6-1.3-.6-.3-1.2-.8-1.7-1.2-.4-.3-.5-.8-.3-1.3.4-1.1.8-2.1,1.3-3.2.6-1.3,1.2-2.5,1.6-3.9.4-1.6,0-3.2-.2-4.8-.2-1.1-.4-2.1-.6-3.2-.3-1.8.2-3.2,1.3-4.7.3-.3.7-.7,1.1-.7,2.6-.3,4.4-.2,5.1-.3,1.1,0,1.7-.2,2.3-.4.7-.3,1.1-.7,1.2-1.4.1-.5.2-1,.3-1.5.4-1.5,1.3-2.5,2.8-3.1,1.2-.5,2.3-.4,3.4.2,1.9,1,3.4,2.3,4.5,4.1,1.1,1.7,2.1,3.4,3.1,5.2,1.5,2.6,3.4,4.8,5.1,7.2,2.1,2.9,4.1,5.8,5.5,9.1.7,1.7,1.1,3.5,1.2,5.4v1.4h0ZM58.4,112.8c-4.8,1.6-9.7,1.9-14.7.8-1.3-.3-2.5-.8-3.7-1.6-1.4-.9-1.9-2.4-2.6-3.8,0-.2,0-.4.3-.4,1,0,1.8-.6,2.5-1.3.4-.3.8-.7,1.1-1.1.9-1,1.1-2.1.4-3.2-.8-1.1-1.6-2.3-2.5-3.2-1.4-1.4-2.8-2.8-4.3-4.1-.9-.8-1.9-1.3-2.9-1.9-2.5-1.6-4.9-3.5-7.1-5.5-2.1-2.1-2.8-4.6-2.6-7.5.1-2.1.7-4.1,1.4-6,1.2-3.1,2.5-6.2,4.1-9.2.3-.6.7-1.2,1.1-1.7.2-.3.6-.4,1-.2h0c.3.2.4.7.1,1-3,4-4.9,8.7-6,13.5-.4,1.8-.7,3.7-.2,5.6.3,1.5,1.1,2.7,2.4,3.6,0,0,.1,0,.2,0,0-1.3-.1-2.6-.1-3.8.1-3.3,1-6.5,2.1-9.6,1.1-2.9,2.5-5.7,3.9-8.4.4-.8.8-1.7,1.2-2.5.7-1.2,1.1-2.6,1.5-4,.5-2.1,1.3-4.1,2.1-6.1.5-1.1,1-2.2,1.6-3.2,1.1-1.9,2-3.8,2.1-6.1,0,0,.2,0,.3.2.9.8,1.7,1.7,2.7,2.4,1.2.9,2.2,1.2,3.4,1.5,3.5.8,6.7-.6,9.7-2.3,2.3-1.3,4.7-3.1,6.7-4.7,0,0,.9,1.8,1.3,2.8,1.2,3.2,2.9,6.1,4.4,9.1,0,.2.2.5.2.7,0,1.6.3,3.2.9,4.7.6,1.4,1.4,2.8,2.3,4.1.8,1.3,1.7,2.5,2.4,3.8,1,1.8,1.5,3.9,2,5.9.9,3.5.9,7.1.8,10.7,0,2.6-.4,7.9-.4,8-.2,0-.4-.2-.5-.3-1.8-1.1-3.5-.7-4.7,1-.9,1.2-1.2,2.6-1.4,4,0,.8,0,1.7-.2,2.6,0,1,0,1.9,0,2.9,0,.8.2,2.8.2,2.8-3.3,4.5-7.4,8-12.8,9.8h.2ZM105.4,111.2c-.5.3-.9.6-1.4.8-4.7,1.8-9,4.3-12.7,7.8-1.4,1.4-2.9,2.7-4.5,3.9-1.3,1-2.7,2.2-4.4,2.7-.3,0-.6.2-.9.2-1.7.4-3.6.4-5.2,0-2.2-.7-3.8-1.9-4.9-4,0-.2-.2-.5,0-.8.2-1.4.6-2.8.7-4.2,0-.9.7-5.1.7-6.3v-2.5c0-4.1,0-8,.2-12.1,0-1.3.2-2.6.5-3.8,0-.5.4-1.1.8-1.5.7-.9,1.9-1,2.9-.4.6.4,1,.8,1.2,1.6.2.9.5,1.8.9,2.7.8,2.1,2.4,3.3,4.6,3.7,1.9.4,3.8.3,5.4-.8,1-.7,1.9-1.5,2.8-2.4s1.3-1.3,2-1.9c.3-.3.5-.6.8-.8.2-.2.4-.3.6-.5,1-.6,1.4-.4,1.7.6.4,1.5.6,3,1,4.4.3,1,.6,1.9,1.1,2.8.9,1.8,2.4,3,4.2,3.7,1.2.5,2.2,1.2,3.1,2.1,1.4,1.6,1.1,3.9-.6,5h-.5Z"/>
        <path class="cls-1" d="M46.4,31.6h0c.2-.7.7-1.2,1.4-1.4h.3c.3-.1.4.1.5.4,0,.5-1.1,1.7-1.6,1.7s-.6,0-.6-.5h0v-.2Z"/>
        <path class="cls-1" d="M51.7,32.1c-.3,0-.5-.2-.6-.4-.3-.3-.5-.6-.7-1,0,0,0-.4,0-.6s.5,0,.5,0c.5.3.9.6,1.2,1.1s0,.9-.5.9h0Z"/>
      </g>
    </g>
  </g>
</svg>