<?xml version="1.0" encoding="UTF-8"?>
<svg xmlns="http://www.w3.org/2000/svg" version="1.1" viewBox="0 0 128 125.1">
  <defs>
    <style>
      .cls-1 {
        fill: #393f48;
      }
    </style>
  </defs>
  <!-- Generator: Adobe Illustrator 28.7.8, SVG Export Plug-In . SVG Version: 1.2.0 Build 200)  -->
  <g>
    <g id="Ebene_1">
      <g id="Ebene_1-2" data-name="Ebene_1">
        <g>
          <path class="cls-1" d="M45.1,42.5h-9.2v19.1h9.2c5.1,0,9.3-4.3,9.3-9.6s-4.2-9.6-9.3-9.6h0Z"/>
          <path class="cls-1" d="M97.3,0H30.7C13.7,0,0,13.7,0,30.7v63.7c0,16.9,13.7,30.7,30.7,30.7h66.6c16.9,0,30.7-13.7,30.7-30.7V30.7c0-17-13.7-30.7-30.7-30.7ZM45,72.1h-9.1v15.9h-10.6v-55.9h19.7c11,0,20,9,20,20s-9,20-20,20ZM83.9,90.8c-9.4,0-13.3-4-13.3-4v-11.8c5.1,5.1,18.9,7.4,18.9,2.2s-18.9-5.4-18.9-18.3,10.7-13.5,18.2-13.5,11.1,2.8,11.1,2.8h0v10.5s-4.7-4.5-11.1-4.5-7.6,1.9-7.7,3.5c0,3.1,8,5.3,8,5.3,0,0,13.5,3.5,13.5,14.3s-9.3,13.3-18.7,13.3v.2Z"/>
        </g>
      </g>
    </g>
  </g>
</svg>