<?xml version="1.0" encoding="UTF-8"?>
<svg xmlns="http://www.w3.org/2000/svg" version="1.1" viewBox="0 0 128 128">
  <defs>
    <style>
      .cls-1 {
        fill: #393f48;
      }
    </style>
  </defs>
  <!-- Generator: Adobe Illustrator 28.7.8, SVG Export Plug-In . SVG Version: 1.2.0 Build 200)  -->
  <g>
    <g id="Ebene_1">
      <g id="Ebene_1-2" data-name="Ebene_1">
        <path class="cls-1" d="M64,0C28.7,0,0,28.7,0,64s20,54.4,47.2,61.8c0,0,0-.2,0-.3.3-.9.4-1.9.4-4.2v-9.6c-4,.5-7.4.4-9.8.2,0,0-6.8-.6-9.4-2.9-1.4-1.2-2.6-2.8-2.6-2.8-1.5-2.1-2.2-4-2.5-4.6-1.6-3.6-4.8-6.6-5.5-7.2-.6-.6-1.2-1.3-1.9-1.8-.6-.5-1.2-.7-1.3-1.4,0,0-.2-.7.2-1.3s.5-.4.7-.4c.9-.2,1.7,0,3,0,1.4.2,2,.4,2.8.7.9.3,1.4.7,2.1,1.2,1.3.9,2.2,1.8,3,2.6,1.2,1.3,1.5,1.9,2.5,3.2,1.9,2.7,3.1,4.3,5,5.2,1.6.9,3,.9,5.9,1.2,1.3,0,2.6.2,4.2,0,1.4-.2,2.7-.5,3.6-1v-.5c0-3.6,1.8-7,4.6-9-8.9-.6-19.5-3-25-11-2.4-3.3-5.8-10.3-6.1-18.2v-1.9c0-3.1,0-10.3,4.1-17.1.5-1,1.2-1.9,1.9-2.8-.3-2-.5-4.3-.4-7,0-4.6,1-8.5,1.8-11.2,3.2.3,7.9,1.2,13,3.7s3.6,2,5,3c5.7-1.5,10.9-1.8,13.9-2,1.2,0,2.5-.2,3.7-.2s2.6.1,3.7.2c3,.2,8.2.5,13.9,2,1.4-1.1,3.1-2,5-3,5.1-2.6,9.9-3.4,13-3.7.9,2.8,1.7,6.6,1.8,11.2,0,2.6-.2,4.9-.4,7,.6.9,1.3,1.8,1.9,2.8,4.2,6.8,4.1,14,4.1,17.1h0v1.9c-.4,7.9-3.7,14.8-6.1,18.2-5.6,7.8-15.9,10.4-24.7,11,2.8,2,4.6,5.3,4.6,9v18.4c0,1,0,.6,0,.9,0,2.2,0,3.3.4,4.2h0c26.9-7.6,46.7-32.3,46.7-61.6S99.3,0,64,0Z"/>
      </g>
    </g>
  </g>
</svg>