<?xml version="1.0" encoding="UTF-8"?>
<svg xmlns="http://www.w3.org/2000/svg" version="1.1" viewBox="0 0 128 125.1">
  <defs>
    <style>
      .cls-1 {
        fill: #393f48;
      }
    </style>
  </defs>
  <!-- Generator: Adobe Illustrator 28.7.8, SVG Export Plug-In . SVG Version: 1.2.0 Build 200)  -->
  <g>
    <g id="Ebene_1">
      <g id="Ebene_1-2" data-name="Ebene_1">
        <g>
          <polygon class="cls-1" points="43.4 64.1 58 64.1 50.7 41.1 43.4 64.1"/>
          <path class="cls-1" d="M97.3,0H30.7C13.7,0,0,13.7,0,30.7v63.7c0,16.9,13.7,30.7,30.7,30.7h66.6c16.9,0,30.7-13.7,30.7-30.7V30.7c0-17-13.7-30.7-30.7-30.7ZM88.8,28.5c3.7,0,6.6,3,6.6,6.6s-3,6.6-6.6,6.6-6.6-3-6.6-6.6,3-6.6,6.6-6.6ZM65.7,88l-4.2-13.2h-21.4l-4.2,13.2h-10.4l17.8-55.8h15.1l17.8,55.8h-10.5ZM95.7,88h-13.8v-42.5h13.8v42.5Z"/>
        </g>
      </g>
    </g>
  </g>
</svg>