<?xml version="1.0" encoding="UTF-8"?>
<svg xmlns="http://www.w3.org/2000/svg" version="1.1" viewBox="0 0 127.9 125">
  <defs>
    <style>
      .cls-1 {
        fill: #393f48;
      }
    </style>
  </defs>
  <!-- Generator: Adobe Illustrator 28.7.8, SVG Export Plug-In . SVG Version: 1.2.0 Build 200)  -->
  <g>
    <g id="Ebene_1">
      <g id="Ebene_1-2" data-name="Ebene_1">
        <g>
          <path class="cls-1" d="M64.4,66.7c0,5.4,4.3,9.9,9.6,9.9h9.4v-19.7h-9.4c-5.3,0-9.6,4.4-9.6,9.9h0Z"/>
          <path class="cls-1" d="M97.2,0H30.7C13.7,0,0,13.7,0,30.7v63.6c0,16.9,13.7,30.7,30.7,30.7h66.5c16.9,0,30.7-13.7,30.7-30.7V30.7c0-17-13.7-30.7-30.7-30.7ZM44.9,87.4h-11.4V31.2h11.4v56.1h0ZM94.4,46.1v41.3h-20.3c-11.4,0-20.6-9.3-20.6-20.6s9.3-20.7,20.6-20.7h9.4v-20.4h10.9s0,20.4,0,20.4Z"/>
        </g>
      </g>
    </g>
  </g>
</svg>