<?xml version="1.0" encoding="UTF-8"?>
<svg xmlns="http://www.w3.org/2000/svg" version="1.1" viewBox="0 0 128 128">
  <defs>
    <style>
      .cls-1 {
        fill: #393f48;
      }
    </style>
  </defs>
  <!-- Generator: Adobe Illustrator 28.7.8, SVG Export Plug-In . SVG Version: 1.2.0 Build 200)  -->
  <g>
    <g id="Ebene_1">
      <g id="Ebene_1-2" data-name="Ebene_1">
        <path class="cls-1" d="M0,17v94c0,9.4,7.6,17,17,17h94c9.4,0,17-7.6,17-17V17c0-9.4-7.6-17-17-17H17C7.6,0,0,7.6,0,17ZM69.8,101.9c0,8.9-7.2,16-16,16h-3c-6.7,0-12.9-3.5-16.3-9.2l-1-1.6h0l10.1-6.2,1.6,2.6c1.3,2.2,3.8,3.6,6.3,3.6h.5c3.2,0,5.8-2.6,5.8-5.8v-42.7h12.1v43.2h0ZM114.4,111.8c-7.1,8.5-29.8,9.9-38.1-6.1l9.6-5.8c1.2,2.8,6.1,7.6,11.9,7.4,4.1-.2,9.2-2.2,7.9-7.4-1.4-5.8-16.9-7.9-22.8-15.4-4.3-5.4-4.8-16.4,1.4-21.7,9.1-8.1,24.3-6.2,30.1,4.9l-9.4,6c-.7-2.9-3.7-5.2-7.2-5.2s-6.2,2.7-6.1,5.4c0,3.3,3.2,5.4,6.6,6.6,0,0,11.7,5.1,14.5,7.8,11.4,11.4,1.7,23.3,1.7,23.3h0v.2Z"/>
      </g>
    </g>
  </g>
</svg>