<?xml version="1.0" encoding="UTF-8"?>
<svg xmlns="http://www.w3.org/2000/svg" version="1.1" viewBox="0 0 128 128">
  <defs>
    <style>
      .cls-1 {
        fill: #393f48;
      }
    </style>
  </defs>
  <!-- Generator: Adobe Illustrator 28.7.8, SVG Export Plug-In . SVG Version: 1.2.0 Build 200)  -->
  <g>
    <g id="Ebene_1">
      <g id="Ebene_1-2" data-name="Ebene_1">
        <path class="cls-1" d="M64,0C28.6,0,0,28.6,0,64s28.6,64,64,64,64-28.7,64-64S99.3,0,64,0ZM64,121c-31.4,0-57-25.6-57-57S32.6,7,64,7s57,25.6,57,57-25.6,57-57,57Z"/>
        <g>
          <path class="cls-1" d="M37.5,63.6c-1.3,5.2-3.8,10.1-7.1,14.7-.6.8-.6,1.9.2,2.6.3.3.9.7,1.5.7s.8-.1,1.1-.3c3.9-2.6,8.2-4.6,12.6-5.7,2.5-.7,9.3-2,17.7-.7,3.9.7,7.9,1.8,11.6,3.5.7.3,1.5.2,2-.2.6-.4.9-1.2.8-1.9-.9-5.4-2.5-10.8-4.7-15.7-2.8-6.5-6.7-12.6-11.6-18.1-4.2-4.7-8.2-8-10.3-9.8-5.6-4.6-11.9-8.5-18.6-11.6-.8-.3-1.8-.1-2.4.6s-.7,1.7-.2,2.4c3.8,6,12.1,21.8,7.3,39.7h.1ZM42.9,49.5c-.2-4.3-1-8.5-2.4-12.8-1-3.1-2.2-6.3-3.7-9.2,4.3,2.4,8.2,5.1,11.9,8.1,4.3,3.6,14.5,11.8,20.8,26.4,1.6,3.6,2.8,7.3,3.7,11.2-2.9-1.1-6-1.9-9.1-2.4-4.2-.7-8.4-.8-12.7-.4-2.4.2-4.6.7-6.7,1.1-2.4.7-4.7,1.5-7,2.5,1.6-3,2.7-6.1,3.6-9.3,1.3-4.8,1.8-9.9,1.6-15h0Z"/>
          <path class="cls-1" d="M54.9,33.6c6.4,5.2,11.9,11.3,16.3,18.3,4.6,7.2,7.9,15,9.9,23.4.1.6.6,1,1,1.3s1.1.3,1.7,0c1.2-.4,2.6-.7,3.9-.7,2.2.1,3.9,1,4.9,1.8.3.2.8.3,1.2.3s.8-.1,1.1-.3c.7-.4,1-1.3.8-2.2-1.1-4-2.6-8-4.4-11.7-2.6-5.4-5.8-10.6-9.8-15-3.9-4.7-8.5-8.9-13.7-12.5-3.5-2.5-7.2-4.5-11.1-6.3-.9-.4-2,0-2.6.8-.6.9-.3,2,.4,2.6h0l.2.2ZM69.4,42.4c3.4,2.7,6.4,5.7,9.2,9,5.2,6.1,9.2,13.4,11.9,20.9-.9-.2-1.7-.3-2.6-.4h-.8c-.9,0-1.8,0-2.7.2-2.1-8-5.4-15.6-9.9-22.6-1.6-2.5-3.3-4.8-5.2-7.2h0Z"/>
          <path class="cls-1" d="M110.3,94.9c-.3-.3-.9-.6-1.5-.7-.7,0-1.2-.1-1.8-.3-.7-.3-.9-.6-1.5-1.2-.4-.6-1-1.1-1.9-1.8-2-1.5-4.2-2.2-6.2-2.1-2.8.1-4.8,1.8-5.7,2.7-1.9,1.9-3.8,2.8-5.6,2.8h0c-.4,0-.8,0-1.1-.2,3-1.3,6.1-2.9,8.9-4.7,3.6-2.2,7.1-4.8,10.2-7.6.7-.6.9-1.5.4-2.2-.3-.8-1.1-1.2-2-1.2-13.5,1-27.2,2-40.6,2.9-12,.8-24.1,1.6-36,2.2-.7,0-1.2.4-1.6,1s-.3,1.3,0,1.9l1.7,3.6c-1.3.9-2.6,2-3.1,2.5h0c-.4.4-1.2,1.1-2.2,1.3-.3,0-.8.1-1.1.1-1.1,0-2,.9-2,2s.9,2,2,2,1.5,0,2.1-.2c2-.6,3.4-1.7,3.9-2.2h0c1.3-1.2,3.4-2.8,4.4-3.1.9-.3,1.8.3,3.7,1.9,1,.8,2.1,1.8,3.5,2.5,1.6.9,3.3,1.3,4.8,1.3h.2c3.1,0,5.3-1.7,6.8-2.9,1.6-1.2,2.7-2.1,4.6-2,1.6,0,2.4.8,3.5,1.8,1.3,1.2,2.9,2.6,5.8,2.9h.9c3,0,5.2-1.6,6.8-2.8s3-2.1,5.1-2c1.3,0,2.4.8,3.4,1.7.2.3.4.6.8.7,1.5,1.2,3.4,2.7,6.2,2.8,2.9,0,5.8-1.2,8.6-4s1.7-1.5,3-1.6c1,0,2.4.4,3.5,1.3.6.4.9.8,1.3,1.2.7.8,1.3,1.6,2.8,2.2,1,.4,2.1.7,3.4.8h0c1.1,0,2-.9,2-2s-.2-1-.6-1.5h0v.3ZM29.1,87.2c11-.7,22.1-1.3,33-2.1,11.3-.8,22.9-1.6,34.4-2.5-1.6,1.1-3.1,2.2-4.7,3.3-3.4,2.1-7,3.8-10.7,5.4-1.3-1-2.9-2-5.3-2.2-3.5-.2-5.8,1.5-7.6,2.8-1.7,1.2-3,2.1-4.9,2-1.6-.1-2.4-.9-3.6-1.9-1.3-1.2-3-2.7-6-2.9-3.5-.2-5.6,1.5-7.4,2.9-1.5,1.2-2.6,2.1-4.5,2-2.2,0-4-1.5-5.8-3-1.1-.9-2-1.7-3.1-2.2s-2.2-.8-3.4-.7l-.4-1h0v.2Z"/>
        </g>
      </g>
    </g>
  </g>
</svg>